<?xml version="1.0" encoding="UTF-8"?>
<svg version="1.1" xmlns="http://www.w3.org/2000/svg" width="228" height="221">
<path d="M0 0 C12.38144137 0.99850334 22.22131697 5.236337 33.07958984 10.984375 C34.79145504 11.88970925 36.51417957 12.77444166 38.23828125 13.65625 C46.67535862 18.21562426 53.28617601 24.24940053 60 31 C60.76441406 31.76441406 61.52882812 32.52882812 62.31640625 33.31640625 C79.93951789 52.04311783 89.9301401 79.98430986 89.19140625 105.59375 C87.7566028 123.63127913 87.7566028 123.63127913 84 131 C81.875 132.375 81.875 132.375 80 133 C79.67 133.66 79.34 134.32 79 135 C77.29296875 136.03515625 77.29296875 136.03515625 75.1875 137.0625 C74.50042969 137.40410156 73.81335938 137.74570313 73.10546875 138.09765625 C71.08082681 138.96535994 69.14842919 139.53169072 67 140 C67.33 138.35 67.66 136.7 68 135 C67.01 134.67 66.02 134.34 65 134 C65 133.34 65 132.68 65 132 C64.175 132.53109375 63.35 133.0621875 62.5 133.609375 C47.96159029 142.64145807 34.00566548 145.10473439 17 144 C16.01 143.67 15.02 143.34 14 143 C14.14188985 140.45805839 14.28839155 137.91652007 14.4375 135.375 C14.47681641 134.66214844 14.51613281 133.94929687 14.55664062 133.21484375 C14.80309681 129.08196318 15.23470053 125.07730976 16 121 C16.55349121 121.01571045 17.10698242 121.0314209 17.67724609 121.04760742 C33.82443717 121.84085401 33.82443717 121.84085401 48.625 116.3125 C50.70601584 112.81260973 50.26854797 110.0282195 50 106 C45.73627457 104.55337887 41.47682353 103.13086128 37.15625 101.86328125 C16.96386409 95.89615083 16.96386409 95.89615083 11.2109375 87.6640625 C9.28054378 83.41719632 8.59508853 78.97033779 7.93603516 74.37182617 C7.67746352 72.57272317 7.34472818 70.78459895 7 69 C6.34 68.67 5.68 68.34 5 68 C5.07516846 68.94103073 5.15033691 69.88206146 5.2277832 70.85160828 C5.93621846 79.72372475 6.64257743 88.59600442 7.34690857 97.46844769 C7.70907049 102.02974886 8.07196141 106.59098958 8.43652344 111.15209961 C8.78837494 115.5545244 9.13830487 119.9570981 9.48690796 124.35978127 C9.62018534 126.03872933 9.75415282 127.71762277 9.88882446 129.39645958 C10.07745458 131.74943528 10.2636213 134.10259397 10.44921875 136.45581055 C10.50532318 137.1484903 10.56142761 137.84117004 10.61923218 138.55484009 C10.89191253 142.04591552 11.05942605 145.49820914 11 149 C5.44251618 150.94999432 -0.14446545 152.61197925 -5.83984375 154.109375 C-6.87618958 154.38370361 -6.87618958 154.38370361 -7.93347168 154.66357422 C-9.62197417 155.11033752 -11.31094002 155.55534899 -13 156 C-13.43201923 150.89581531 -13.85907968 145.79124765 -14.28173828 140.6862793 C-14.42591495 138.95309513 -14.57139804 137.22001909 -14.71826172 135.48706055 C-14.93027708 132.98253891 -15.13744305 130.47765382 -15.34375 127.97265625 C-15.40937134 127.20977798 -15.47499268 126.44689972 -15.54260254 125.66090393 C-15.96755473 120.42463648 -16.05470219 115.25368959 -16 110 C-17.32 110 -18.64 110 -20 110 C-20.09992587 117.20576546 -20.03546751 124.31266843 -19.5 131.5 C-18.96453249 138.68733157 -18.90007413 145.79423454 -19 153 C-21.49597691 154.44487984 -23.99640613 155.88092372 -26.5 157.3125 C-27.19609375 157.71662109 -27.8921875 158.12074219 -28.609375 158.53710938 C-39.95884146 165 -39.95884146 165 -46 165 C-45.67 165.99 -45.34 166.98 -45 168 C-43.68 168 -42.36 168 -41 168 C-40.67 167.34 -40.34 166.68 -40 166 C-36.36349395 166.55751312 -33.94027118 167.49533596 -30.875 169.5 C-26.39965392 172.11624084 -22.61400155 172.62097254 -17.48046875 172.76171875 C-14.83486437 173.01586342 -13.24162239 173.59711383 -11 175 C-9.00474006 177.99288991 -9 179.23085596 -9 183 C-8.01 183.33 -7.02 183.66 -6 184 C-4.8125 186.0625 -4.8125 186.0625 -4 188 C-3.030625 187.87625 -2.06125 187.7525 -1.0625 187.625 C4.2331342 187.55988974 7.95592 190.91879619 12 194 C11.67 196.31 11.34 198.62 11 201 C-6.27059947 207.318512 -28.7734058 205.86398382 -46 200 C-47.24652344 199.57589844 -48.49304688 199.15179688 -49.77734375 198.71484375 C-55.20851786 196.560378 -59.22752525 194.84014338 -61.875 189.4375 C-62.98198055 185.92913306 -63.54312737 183.44934353 -62 180 C-60.43198882 177.56599572 -58.76269068 175.30505704 -57 173 C-54.36 173.33 -51.72 173.66 -49 174 C-48.67 171.69 -48.34 169.38 -48 167 C-49.10794922 167.2165625 -49.10794922 167.2165625 -50.23828125 167.4375 C-63.17566207 169.80469547 -76.18895092 170.555017 -87.8125 163.3125 C-98.73835643 155.29624664 -104.42223441 144.1649488 -106.4765625 130.9296875 C-108.1606605 114.67618354 -104.12278599 100.47287136 -94.15625 87.53125 C-84.64361494 76.36424362 -72.89778223 70.19023537 -59.0546875 66.04296875 C-55.9342858 65.22808464 -55.9342858 65.22808464 -54 63 C-53.57446839 60.37023476 -53.57446839 60.37023476 -53.4375 57.4375 C-53.09722222 52.09722222 -53.09722222 52.09722222 -52 51 C-51.73957137 47.09357062 -51.7448584 44.26995532 -54 41 C-54.639375 40.54625 -55.27875 40.0925 -55.9375 39.625 C-58.63228769 37.50183394 -59.47797575 35.04404851 -61 32 C-63.04946399 30.14684743 -63.04946399 30.14684743 -65 29 C-64.67 27.68 -64.34 26.36 -64 25 C-63.01 25 -62.02 25 -61 25 C-60.505 25.99 -60.505 25.99 -60 27 C-59.443125 26.71125 -58.88625 26.4225 -58.3125 26.125 C-57.549375 25.75375 -56.78625 25.3825 -56 25 C-55.2575 24.608125 -54.515 24.21625 -53.75 23.8125 C-48.44096838 22.24392248 -44.33906032 23.28087501 -39.625 25.8125 C-35.73684211 29.05263158 -35.73684211 29.05263158 -35 32 C-35.15202592 34.72598198 -35.54955509 37.29733054 -36 40 C-34.68 39.67 -33.36 39.34 -32 39 C-32 38.34 -32 37.68 -32 37 C-29.69 37.33 -27.38 37.66 -25 38 C-25 37.34 -25 36.68 -25 36 C-23.515 36.495 -23.515 36.495 -22 37 C-22 38.98 -22 40.96 -22 43 C-20.515 43.495 -20.515 43.495 -19 44 C-19 44.99 -19 45.98 -19 47 C-20.98 47 -22.96 47 -25 47 C-24.79375 47.763125 -24.5875 48.52625 -24.375 49.3125 C-24 52 -24 52 -26 55 C-17.69366705 55.39139789 -10.93641898 54.50623757 -3 52 C-2.34 48.7 -1.68 45.4 -1 42 C6.43335872 41.63442498 6.43335872 41.63442498 8.9375 43.25 C10 45 10 45 10.375 46.9375 C11.30935302 50.02086495 13.45226747 51.1708587 16 53 C16.60328125 52.43410156 17.2065625 51.86820313 17.828125 51.28515625 C18.62734375 50.55167969 19.4265625 49.81820312 20.25 49.0625 C21.03890625 48.33160156 21.8278125 47.60070313 22.640625 46.84765625 C24.89044414 45.08579457 26.21628554 44.40223397 29 44 C28.67 43.236875 28.34 42.47375 28 41.6875 C27 39 27 39 27 36 C26.34 36 25.68 36 25 36 C25.66 34.68 26.32 33.36 27 32 C27 32.66 27 33.32 27 34 C27.66 34 28.32 34 29 34 C28.95875 33.21625 28.9175 32.4325 28.875 31.625 C29 29 29 29 31 27 C33.625 26.875 33.625 26.875 36 27 C35.67 26.67 35.34 26.34 35 26 C35 25.01 35 24.02 35 23 C34.29875 23.185625 33.5975 23.37125 32.875 23.5625 C29.66247239 24.0513629 27.17844475 23.56505684 24 23 C23.34 23.33 22.68 23.66 22 24 C21.01 22.515 21.01 22.515 20 21 C16.44327821 19.7811879 16.44327821 19.7811879 13 19 C13 18.34 13 17.68 13 17 C11.02 17 9.04 17 7 17 C7 16.34 7 15.68 7 15 C5.68 15 4.36 15 3 15 C3 14.34 3 13.68 3 13 C2.01 13 1.02 13 0 13 C0.59927826 9.64404172 1.84622436 7.62198774 4 5 C2.68 4.67 1.36 4.34 0 4 C0 2.68 0 1.36 0 0 Z M35.4375 64.875 C33.69697786 67.44794577 33.66154318 68.95388864 34 72 C37.42307436 74.15208628 37.42307436 74.15208628 41 76 C43.16263073 75.1955029 43.16263073 75.1955029 43.75 73.125 C44.26802406 70.69990757 44.26802406 70.69990757 42 68 C41.875 65.3125 41.875 65.3125 42 63 C43.670625 63.5259375 43.670625 63.5259375 45.375 64.0625 C48.80264476 65.37239331 48.80264476 65.37239331 51 64 C51.65213292 61.97536745 51.65213292 61.97536745 52 60 C46.05521211 59.42469795 40.20325607 61.38786142 35.4375 64.875 Z M56 67 C56.33 68.32 56.66 69.64 57 71 C57.66 70.67 58.32 70.34 59 70 C59 69.34 59 68.68 59 68 C58.01 67.67 57.02 67.34 56 67 Z M-26 76 C-26.6030807 79.26998075 -26.6030807 79.26998075 -26.3125 82.75 C-26.26738281 83.92046875 -26.22226563 85.0909375 -26.17578125 86.296875 C-26.11777344 87.18890625 -26.05976562 88.0809375 -26 89 C-22.535 88.505 -22.535 88.505 -19 88 C-18.90311779 82.55306686 -18.87137825 77.36095333 -20 72 C-22.57094672 72 -24.32964877 74.35354887 -26 76 Z M74 77 C73.01 77.495 73.01 77.495 72 78 C72.33 78.66 72.66 79.32 73 80 C73.36141955 82.32914823 73.69699525 84.66253478 74 87 C75.32 87 76.64 87 78 87 C77.67 85.35 77.34 83.7 77 82 C77.61875 81.7525 78.2375 81.505 78.875 81.25 C81.35068687 79.79371361 81.95125002 78.62187494 83 76 C79.20720018 74.73573339 77.65934648 75.59854816 74 77 Z M58 78 C57.67 78.66 57.34 79.32 57 80 C57.66 80 58.32 80 59 80 C58.67 79.34 58.34 78.68 58 78 Z M79 89 C80 91 80 91 80 91 Z M74 92 C75 94 75 94 75 94 Z M-78 109 C-77 113 -77 113 -77 113 Z M-79 116 C-79 118.31 -79 120.62 -79 123 C-78.67 123 -78.34 123 -78 123 C-78 120.69 -78 118.38 -78 116 C-78.33 116 -78.66 116 -79 116 Z M-61 122 C-63.32086397 127.324335 -62.91457003 131.43842552 -62 137 C-59.525 137.99 -59.525 137.99 -57 139 C-57 140.65 -57 142.3 -57 144 C-51.92433398 145.7447602 -48.72546655 144.00231633 -44 142 C-44.33 136.72 -44.66 131.44 -45 126 C-49.29 126.99 -53.58 127.98 -58 129 C-58 127.02 -58 125.04 -58 123 C-58.99 122.67 -59.98 122.34 -61 122 Z M-78 128 C-77 131 -77 131 -77 131 Z M-74 137 C-73.34 138.32 -72.68 139.64 -72 141 C-72 140.01 -72 139.02 -72 138 C-72.66 137.67 -73.32 137.34 -74 137 Z M-71 141 C-70.01 141.99 -69.02 142.98 -68 144 C-68 143.01 -68 142.02 -68 141 C-68.99 141 -69.98 141 -71 141 Z " fill="#4C83DA" transform="translate(128,11)"/>
<path d="M0 0 C0.11459026 7.41017023 -0.08839714 14.64206267 -1 22 C-2.11117187 22.03738281 -3.22234375 22.07476562 -4.3671875 22.11328125 C-18.79100553 22.70243911 -31.37484475 24.85855932 -41.9375 35.6875 C-47.92210678 43.11179992 -48.96338549 52.75417538 -48 62 C-46.76854781 69.00901538 -44.29718933 74.17498354 -39 79 C-38.01 79.495 -38.01 79.495 -37 80 C-37 80.66 -37 81.32 -37 82 C-31.72 82.33 -26.44 82.66 -21 83 C-21 82.34 -21 81.68 -21 81 C-17.04 80.01 -17.04 80.01 -13 79 C-13.99 71.575 -13.99 71.575 -15 64 C-16.85625 64.495 -16.85625 64.495 -18.75 65 C-21.74591845 65.79891159 -23.80107719 66 -27 66 C-28.5056121 58.97381022 -27.64057643 52.10547081 -27 45 C-26.04130005 44.75092896 -26.04130005 44.75092896 -25.06323242 44.49682617 C-22.10447889 43.72772632 -19.14598884 42.9576174 -16.1875 42.1875 C-15.18267578 41.92646484 -14.17785156 41.66542969 -13.14257812 41.39648438 C-7.13699708 39.83232983 -1.14734466 38.22439614 4.8269043 36.54418945 C7 36 7 36 9 36 C9.02505615 36.78012451 9.0501123 37.56024902 9.07592773 38.36401367 C9.19349944 41.97194545 9.31548005 45.57971603 9.4375 49.1875 C9.47681641 50.41404297 9.51613281 51.64058594 9.55664062 52.90429688 C9.80089938 60.02537902 10.19847641 67.10989386 10.77514648 74.21166992 C11.0265501 77.3292385 11.22987052 80.43562671 11.3125 83.5625 C11.36857422 84.98755859 11.36857422 84.98755859 11.42578125 86.44140625 C10.84617982 89.92433229 9.78216623 90.837558 7 93 C4.44104989 94.54041944 1.80718156 95.87593782 -0.875 97.1875 C-1.56980469 97.54263672 -2.26460938 97.89777344 -2.98046875 98.26367188 C-6.98777099 100.25222958 -10.49211664 101.52660159 -15 102 C-14.67 102.99 -14.34 103.98 -14 105 C-12.68 105 -11.36 105 -10 105 C-9.67 104.34 -9.34 103.68 -9 103 C-5.36349395 103.55751312 -2.94027118 104.49533596 0.125 106.5 C4.60034608 109.11624084 8.38599845 109.62097254 13.51953125 109.76171875 C16.16513563 110.01586342 17.75837761 110.59711383 20 112 C21.99525994 114.99288991 22 116.23085596 22 120 C23.485 120.495 23.485 120.495 25 121 C26.1875 123.0625 26.1875 123.0625 27 125 C27.969375 124.87625 28.93875 124.7525 29.9375 124.625 C35.2331342 124.55988974 38.95592 127.91879619 43 131 C42.67 133.31 42.34 135.62 42 138 C24.72940053 144.318512 2.2265942 142.86398382 -15 137 C-16.24652344 136.57589844 -17.49304688 136.15179688 -18.77734375 135.71484375 C-24.20851786 133.560378 -28.22752525 131.84014338 -30.875 126.4375 C-31.98198055 122.92913306 -32.54312737 120.44934353 -31 117 C-29.43198882 114.56599572 -27.76269068 112.30505704 -26 110 C-23.36 110.33 -20.72 110.66 -18 111 C-17.67 108.69 -17.34 106.38 -17 104 C-18.10794922 104.2165625 -18.10794922 104.2165625 -19.23828125 104.4375 C-32.17566207 106.80469547 -45.18895092 107.555017 -56.8125 100.3125 C-67.73835643 92.29624664 -73.42223441 81.1649488 -75.4765625 67.9296875 C-77.1606605 51.67618354 -73.12278599 37.47287136 -63.15625 24.53125 C-53.76654501 13.50855284 -41.8611683 6.8286603 -28 3 C-26.45699219 2.55140625 -26.45699219 2.55140625 -24.8828125 2.09375 C-16.44415285 -0.13455133 -8.6662534 -0.32363602 0 0 Z " fill="#4E84DB" transform="translate(97,74)"/>
<path d="M0 0 C3.88815789 3.24013158 3.88815789 3.24013158 4.625 6.1875 C4.47297408 8.91348198 4.07544491 11.48483054 3.625 14.1875 C4.945 13.8575 6.265 13.5275 7.625 13.1875 C7.625 12.5275 7.625 11.8675 7.625 11.1875 C9.935 11.5175 12.245 11.8475 14.625 12.1875 C14.625 11.5275 14.625 10.8675 14.625 10.1875 C15.615 10.5175 16.605 10.8475 17.625 11.1875 C17.625 13.1675 17.625 15.1475 17.625 17.1875 C18.615 17.5175 19.605 17.8475 20.625 18.1875 C20.625 19.1775 20.625 20.1675 20.625 21.1875 C18.645 21.1875 16.665 21.1875 14.625 21.1875 C14.83125 21.950625 15.0375 22.71375 15.25 23.5 C15.625 26.1875 15.625 26.1875 13.625 29.1875 C14.6975 29.14625 15.77 29.105 16.875 29.0625 C20.28247485 29.1760825 21.83239631 29.40023364 24.625 31.1875 C22.975 31.1875 21.325 31.1875 19.625 31.1875 C20.12 41.5825 20.12 41.5825 20.625 52.1875 C20.295 52.1875 19.965 52.1875 19.625 52.1875 C19.295 50.5375 18.965 48.8875 18.625 47.1875 C16.51617704 48.26677165 16.51617704 48.26677165 14.625 50.1875 C14.14092066 53.15585863 14.14092066 53.15585863 14.375 56.375 C14.42914063 58.00501953 14.42914063 58.00501953 14.484375 59.66796875 C14.53078125 60.49941406 14.5771875 61.33085938 14.625 62.1875 C16.605 62.1875 18.585 62.1875 20.625 62.1875 C20.625 59.8775 20.625 57.5675 20.625 55.1875 C20.955 55.1875 21.285 55.1875 21.625 55.1875 C22.615 69.5425 22.615 69.5425 23.625 84.1875 C22.305 84.1875 20.985 84.1875 19.625 84.1875 C19.52507413 91.39326546 19.58953249 98.50016843 20.125 105.6875 C20.66046751 112.87483157 20.72492587 119.98173454 20.625 127.1875 C19.635 127.1875 18.645 127.1875 17.625 127.1875 C17.955 126.8575 18.285 126.5275 18.625 126.1875 C18.72743942 124.440004 18.75458243 122.68798996 18.75 120.9375 C18.75257812 119.98359375 18.75515625 119.0296875 18.7578125 118.046875 C18.64397955 114.73902346 18.40447707 111.48746909 18.12109375 108.19140625 C17.53808304 100.91105995 17.51263305 93.67475375 17.5625 86.375 C17.56701172 85.09818359 17.57152344 83.82136719 17.57617188 82.50585938 C17.58780548 79.39968789 17.60414925 76.29362092 17.625 73.1875 C14.89514641 73.93506933 12.16600769 74.68504299 9.4375 75.4375 C8.62192627 75.66203857 7.80635254 75.88657715 6.96606445 76.11791992 C1.03320809 77.7638992 -4.82964028 79.55485162 -10.67578125 81.48828125 C-13.36479039 82.18485525 -15.61140651 82.32341443 -18.375 82.1875 C-18.32279297 83.56035156 -18.32279297 83.56035156 -18.26953125 84.9609375 C-18.24246094 86.14945312 -18.21539062 87.33796875 -18.1875 88.5625 C-18.13529297 90.33753906 -18.13529297 90.33753906 -18.08203125 92.1484375 C-18.17871094 93.15132813 -18.27539062 94.15421875 -18.375 95.1875 C-19.86 96.1775 -19.86 96.1775 -21.375 97.1875 C-22.55810034 101.48891481 -23.13383358 107.04167799 -21.375 111.1875 C-18.89863988 112.56216625 -18.89863988 112.56216625 -16.375 113.1875 C-16.375 114.8375 -16.375 116.4875 -16.375 118.1875 C-15.055 118.8475 -13.735 119.5075 -12.375 120.1875 C-14.66641286 120.24134521 -16.95818188 120.28022087 -19.25 120.3125 C-20.52617188 120.33570313 -21.80234375 120.35890625 -23.1171875 120.3828125 C-26.375 120.1875 -26.375 120.1875 -28.375 118.1875 C-28.375 117.5275 -28.375 116.8675 -28.375 116.1875 C-29.365 115.8575 -30.355 115.5275 -31.375 115.1875 C-32.73327971 113.54110035 -34.06754251 111.87454193 -35.375 110.1875 C-36.035 109.8575 -36.695 109.5275 -37.375 109.1875 C-37.7298954 107.19121336 -38.06078929 105.19059329 -38.375 103.1875 C-38.70886719 102.56617188 -39.04273438 101.94484375 -39.38671875 101.3046875 C-42.37005151 94.91351613 -40.45568745 86.23263994 -38.47265625 79.7578125 C-34.68663051 70.8923145 -26.159332 65.23400229 -17.625 61.375 C-11.8355251 59.25961494 -6.65588564 59.05860099 -0.5625 59.125 C0.22576172 59.12951172 1.01402344 59.13402344 1.82617188 59.13867188 C3.75914761 59.15038688 5.69208393 59.16832002 7.625 59.1875 C7.61339844 58.60484375 7.60179687 58.0221875 7.58984375 57.421875 C7.51506154 50.62737745 7.97444959 43.94857745 8.625 37.1875 C5.20785781 37.4949354 1.79139063 37.80933088 -1.625 38.125 C-3.07712891 38.25551758 -3.07712891 38.25551758 -4.55859375 38.38867188 C-5.96044922 38.51918945 -5.96044922 38.51918945 -7.390625 38.65234375 C-8.24946289 38.730896 -9.10830078 38.80944824 -9.99316406 38.89038086 C-12.19141589 39.16459903 -14.24218545 39.59816966 -16.375 40.1875 C-15.715 39.1975 -15.055 38.2075 -14.375 37.1875 C-13.95422598 34.48154578 -13.95422598 34.48154578 -13.8125 31.5625 C-13.47317672 26.28567672 -13.47317672 26.28567672 -12.375 25.1875 C-12.11457137 21.28107062 -12.1198584 18.45745532 -14.375 15.1875 C-15.014375 14.73375 -15.65375 14.28 -16.3125 13.8125 C-19.00728769 11.68933394 -19.85297575 9.23154851 -21.375 6.1875 C-23.42446399 4.33434743 -23.42446399 4.33434743 -25.375 3.1875 C-25.045 1.8675 -24.715 0.5475 -24.375 -0.8125 C-23.385 -0.8125 -22.395 -0.8125 -21.375 -0.8125 C-21.045 -0.1525 -20.715 0.5075 -20.375 1.1875 C-19.818125 0.89875 -19.26125 0.61 -18.6875 0.3125 C-17.924375 -0.05875 -17.16125 -0.43 -16.375 -0.8125 C-15.6325 -1.204375 -14.89 -1.59625 -14.125 -2 C-8.81596838 -3.56857752 -4.71406032 -2.53162499 0 0 Z M-38.375 83.1875 C-37.375 87.1875 -37.375 87.1875 -37.375 87.1875 Z M-39.375 90.1875 C-39.375 92.4975 -39.375 94.8075 -39.375 97.1875 C-39.045 97.1875 -38.715 97.1875 -38.375 97.1875 C-38.375 94.8775 -38.375 92.5675 -38.375 90.1875 C-38.705 90.1875 -39.035 90.1875 -39.375 90.1875 Z " fill="#86C29A" transform="translate(88.375,36.8125)"/>
<path d="M0 0 C7.43335872 -0.36557502 7.43335872 -0.36557502 9.9375 1.25 C11 3 11 3 11.4375 5 C12.20391605 7.72503485 13.67901268 8.50258883 16 10 C15.45939743 13.89233849 14.37781856 15.92865102 12 19 C10.60448691 22.76258593 11.08147109 26.36572615 11.375 30.3125 C11.46523437 31.58738281 11.55546875 32.86226562 11.6484375 34.17578125 C11.98312192 37.81640404 12.44856976 41.38766461 13 45 C9.75954619 41.75954619 9.83660595 37.0773521 9.14453125 32.67773438 C8.82292965 30.77406041 8.41749013 28.88496794 8 27 C7.34 26.67 6.68 26.34 6 26 C6.07516846 26.94103073 6.15033691 27.88206146 6.2277832 28.85160828 C6.93621846 37.72372475 7.64257743 46.59600442 8.34690857 55.46844769 C8.70907049 60.02974886 9.07196141 64.59098958 9.43652344 69.15209961 C9.78837494 73.5545244 10.13830487 77.9570981 10.48690796 82.35978127 C10.62018534 84.03872933 10.75415282 85.71762277 10.88882446 87.39645958 C11.07745458 89.74943528 11.2636213 92.10259397 11.44921875 94.45581055 C11.50532318 95.1484903 11.56142761 95.84117004 11.61923218 96.55484009 C11.89191253 100.04591552 12.05942605 103.49820914 12 107 C6.44251618 108.94999432 0.85553455 110.61197925 -4.83984375 112.109375 C-5.53074097 112.29226074 -6.22163818 112.47514648 -6.93347168 112.66357422 C-8.62197417 113.11033752 -10.31094002 113.55534899 -12 114 C-12.61789943 106.60878308 -13.23530113 99.21752471 -13.8521328 91.82621861 C-14.13882509 88.39104404 -14.42566472 84.95588194 -14.71289062 81.52075195 C-15.37429646 73.60943368 -16.03249662 65.69785662 -16.6864624 57.78591919 C-16.89272416 55.29533956 -17.09993247 52.80483811 -17.3081665 50.31442261 C-17.59362814 46.89733738 -17.87540874 43.47996764 -18.15625 40.0625 C-18.24047211 39.06364273 -18.32469421 38.06478546 -18.41146851 37.03565979 C-19.01192112 29.65607103 -19.17030417 22.40823137 -19 15 C-13.39 13.35 -7.78 11.7 -2 10 C-1.34 6.7 -0.68 3.4 0 0 Z " fill="#4F85DB" transform="translate(127,53)"/>
<path d="M0 0 C0.66 0.99 1.32 1.98 2 3 C3.32 3 4.64 3 6 3 C6.33 2.34 6.66 1.68 7 1 C10.63650605 1.55751312 13.05972882 2.49533596 16.125 4.5 C20.60034608 7.11624084 24.38599845 7.62097254 29.51953125 7.76171875 C32.16513563 8.01586342 33.75837761 8.59711383 36 10 C37.99525994 12.99288991 38 14.23085596 38 18 C38.99 18.33 39.98 18.66 41 19 C42.1875 21.0625 42.1875 21.0625 43 23 C43.969375 22.87625 44.93875 22.7525 45.9375 22.625 C51.2331342 22.55988974 54.95592 25.91879619 59 29 C58.67 31.31 58.34 33.62 58 36 C40.72940053 42.318512 18.2265942 40.86398382 1 35 C-0.24652344 34.57589844 -1.49304688 34.15179688 -2.77734375 33.71484375 C-8.20851786 31.560378 -12.22752525 29.84014338 -14.875 24.4375 C-15.98198055 20.92913306 -16.54312737 18.44934353 -15 15 C-13.43198882 12.56599572 -11.76269068 10.30505704 -10 8 C-7.36 8.33 -4.72 8.66 -2 9 C-1.67 6.69 -1.34 4.38 -1 2 C-4.3 2.33 -7.6 2.66 -11 3 C-8.09907498 1.06604999 -7.10325263 0.69868059 -3.8125 0.375 C-2.554375 0.25125 -1.29625 0.1275 0 0 Z " fill="#89C49A" transform="translate(81,176)"/>
<path d="M0 0 C15.39316184 15.39316184 23.19130281 39.48162267 24 61 C24.05994141 62.05960938 24.05994141 62.05960938 24.12109375 63.140625 C24.43107442 72.98706981 23.51412041 84.1453792 19 93 C16.875 94.375 16.875 94.375 15 95 C14.67 95.66 14.34 96.32 14 97 C12.29296875 98.03515625 12.29296875 98.03515625 10.1875 99.0625 C9.50042969 99.40410156 8.81335938 99.74570313 8.10546875 100.09765625 C6.08082681 100.96535994 4.14842919 101.53169072 2 102 C2.33 100.35 2.66 98.7 3 97 C2.01 96.67 1.02 96.34 0 96 C0 95.34 0 94.68 0 94 C-0.66 93.67 -1.32 93.34 -2 93 C-1.25363281 92.58492188 -0.50726563 92.16984375 0.26171875 91.7421875 C5.09527919 88.66691224 7.8756366 85.35267968 10 80 C11.01674181 72.64314674 12.22873741 62.34310611 8 56 C8 55.01 8 54.02 8 53 C9.65 53 11.3 53 13 53 C12.34 50.03 11.68 47.06 11 44 C12.65 43.34 14.3 42.68 16 42 C16 40.68 16 39.36 16 38 C13.69 38.66 11.38 39.32 9 40 C9 42.24374952 9.24522119 44.39568543 9.5 46.625 C9.5928125 47.44226563 9.685625 48.25953125 9.78125 49.1015625 C9.88953125 50.04128906 9.88953125 50.04128906 10 51 C8.24853516 51.70019531 8.24853516 51.70019531 6 52 C4.07568359 50.69824219 4.07568359 50.69824219 2.0234375 48.796875 C-3.32668802 44.38263789 -8.72934751 42.89721301 -15.375 41.25 C-17.51010479 40.70155612 -19.64305406 40.14463146 -21.7734375 39.578125 C-22.70591309 39.34512695 -23.63838867 39.11212891 -24.59912109 38.87207031 C-27.11388242 37.95863453 -28.30021034 37.03012748 -30 35 C-27.69 35.66 -25.38 36.32 -23 37 C-22.30840599 35.15274948 -22.30840599 35.15274948 -22 33 C-22.66 32.01 -23.32 31.02 -24 30 C-23.625 27.3125 -23.625 27.3125 -23 25 C-20.03 25.33 -17.06 25.66 -14 26 C-14 25.01 -14 24.02 -14 23 C-16.64 23 -19.28 23 -22 23 C-18.95318939 20.96879293 -18.39881676 20.75340125 -14.98828125 20.8046875 C-13.96408081 20.81218018 -13.96408081 20.81218018 -12.91918945 20.81982422 C-12.05898193 20.83803223 -11.19877441 20.85624023 -10.3125 20.875 C-6.1978125 20.936875 -6.1978125 20.936875 -2 21 C-1.01 10.605 -1.01 10.605 0 0 Z M-9 29 C-8.67 30.32 -8.34 31.64 -8 33 C-7.34 32.67 -6.68 32.34 -6 32 C-6 31.34 -6 30.68 -6 30 C-6.99 29.67 -7.98 29.34 -9 29 Z M-7 40 C-7.33 40.66 -7.66 41.32 -8 42 C-7.34 42 -6.68 42 -6 42 C-6.33 41.34 -6.66 40.68 -7 40 Z M14 51 C15 53 15 53 15 53 Z M9 54 C10 56 10 56 10 56 Z " fill="#86C399" transform="translate(193,49)"/>
<path d="M0 0 C1.65 0 3.3 0 5 0 C5.14550242 4.15842831 5.28773924 8.31695319 5.42724609 12.47558594 C5.47490127 13.88349248 5.52337321 15.29137167 5.57275391 16.69921875 C5.71610305 20.79490867 5.84230019 24.89052816 5.94580078 28.98742676 C5.99952789 30.98246932 6.06805836 32.97709523 6.13671875 34.97167969 C6.16378906 36.20563477 6.19085938 37.43958984 6.21875 38.7109375 C6.24904297 39.8045459 6.27933594 40.8981543 6.31054688 42.02490234 C5.95526963 45.42852539 5.00298176 47.25542346 3 50 C-0.47032947 52.4420837 -4.92695392 53.04962258 -9 54 C-8.01 54.33 -7.02 54.66 -6 55 C-7 58 -7 58 -9.375 59.1875 C-12 60 -12 60 -15 60 C-16.56980081 56.86039839 -16.48500868 53.43993389 -16.75390625 49.984375 C-16.81907944 49.17695862 -16.88425262 48.36954224 -16.95140076 47.53765869 C-17.08877099 45.81954412 -17.22396642 44.10125452 -17.35717773 42.3828125 C-17.55848703 39.80145761 -17.76994578 37.22108151 -17.98242188 34.640625 C-18.74865322 25.06568151 -19.205111 15.61148177 -19 6 C-5.875 1.71428571 -5.875 1.71428571 0 2 C0 1.34 0 0.68 0 0 Z " fill="#457ED8" transform="translate(127,62)"/>
<path d="M0 0 C12.38144137 0.99850334 22.22131697 5.236337 33.07958984 10.984375 C34.79145504 11.88970925 36.51417957 12.77444166 38.23828125 13.65625 C48.86658077 19.39975491 57.45518647 27.64887752 65 37 C64.07102905 37.06731323 64.07102905 37.06731323 63.12329102 37.13598633 C60.2686669 37.34963748 57.41572669 37.5809602 54.5625 37.8125 C53.58861328 37.88275391 52.61472656 37.95300781 51.61132812 38.02539062 C45.34438838 38.54938224 39.8536521 39.70276403 34 42 C32.4840625 42.5878125 32.4840625 42.5878125 30.9375 43.1875 C30.298125 43.455625 29.65875 43.72375 29 44 C27.74335022 41.09399739 27 39.20395416 27 36 C26.34 36 25.68 36 25 36 C25.66 34.68 26.32 33.36 27 32 C27 32.66 27 33.32 27 34 C27.66 34 28.32 34 29 34 C28.95875 33.21625 28.9175 32.4325 28.875 31.625 C29 29 29 29 31 27 C33.625 26.875 33.625 26.875 36 27 C35.67 26.67 35.34 26.34 35 26 C35 25.01 35 24.02 35 23 C34.29875 23.185625 33.5975 23.37125 32.875 23.5625 C29.66247239 24.0513629 27.17844475 23.56505684 24 23 C23.34 23.33 22.68 23.66 22 24 C21.34 23.01 20.68 22.02 20 21 C16.44327821 19.7811879 16.44327821 19.7811879 13 19 C13 18.34 13 17.68 13 17 C11.02 17 9.04 17 7 17 C7 16.34 7 15.68 7 15 C5.68 15 4.36 15 3 15 C3 14.34 3 13.68 3 13 C2.01 13 1.02 13 0 13 C0.59927826 9.64404172 1.84622436 7.62198774 4 5 C2.68 4.67 1.36 4.34 0 4 C0 2.68 0 1.36 0 0 Z " fill="#8DC69F" transform="translate(128,11)"/>
<path d="M0 0 C0.68835938 0.00451172 1.37671875 0.00902344 2.0859375 0.01367188 C3.76566335 0.02533664 5.44534375 0.04326729 7.125 0.0625 C7.23959026 7.47267023 7.03660286 14.70456267 6.125 22.0625 C5.01382813 22.09988281 3.90265625 22.13726562 2.7578125 22.17578125 C-10.63437838 22.72280109 -22.80447428 24.32571783 -32.953125 34.0546875 C-36.96054692 38.51673292 -40.75748933 43.02794236 -41.875 49.0625 C-42.535 49.0625 -43.195 49.0625 -43.875 49.0625 C-44.4375 47.125 -44.4375 47.125 -44.875 45.0625 C-44.38 44.5675 -44.38 44.5675 -43.875 44.0625 C-41.93134661 37.53303938 -41.3556009 30.82885473 -40.875 24.0625 C-40.215 24.0625 -39.555 24.0625 -38.875 24.0625 C-39.205 23.0725 -39.535 22.0825 -39.875 21.0625 C-39.125 18.1875 -39.125 18.1875 -36.875 15.0625 C-28.26822917 10.0625 -28.26822917 10.0625 -23.875 10.0625 C-23.545 9.0725 -23.215 8.0825 -22.875 7.0625 C-20.875 6.5625 -20.875 6.5625 -18.875 6.0625 C-18.545 5.0725 -18.215 4.0825 -17.875 3.0625 C-12.62601292 -0.43682472 -6.07472119 -0.07652265 0 0 Z " fill="#1D69A0" transform="translate(89.875,73.9375)"/>
<path d="M0 0 C0 5.28 0 10.56 0 16 C-2.31 16.33 -4.62 16.66 -7 17 C-6.7525 18.0828125 -6.7525 18.0828125 -6.5 19.1875 C-7 22 -7 22 -8.7109375 23.33984375 C-10.14013615 24.18859168 -11.58845772 25.00602222 -13.0546875 25.7890625 C-15.29831629 26.99980546 -15.29831629 26.99980546 -17 30 C-17.38499891 31.65549531 -17.72793135 33.3222433 -18 35 C-19.9375 34.4375 -19.9375 34.4375 -22 33 C-22.144375 31.88625 -22.28875 30.7725 -22.4375 29.625 C-22.67950364 25.94356545 -22.67950364 25.94356545 -25.0625 23.625 C-28.84770116 21.53105893 -31.70082837 21.29146926 -36 21 C-36 17.04 -36 13.08 -36 9 C-34.46730469 8.60167969 -32.93460937 8.20335938 -31.35546875 7.79296875 C-29.29947047 7.25784591 -27.24348138 6.72268777 -25.1875 6.1875 C-23.68026367 5.79594727 -23.68026367 5.79594727 -22.14257812 5.39648438 C-16.13699708 3.83232983 -10.14734466 2.22439614 -4.1730957 0.54418945 C-2 0 -2 0 0 0 Z " fill="#1D69A1" transform="translate(106,110)"/>
<path d="M0 0 C4.8326087 3.34565217 4.8326087 3.34565217 5.6875 6.6875 C5.790625 7.450625 5.89375 8.21375 6 9 C6.66 9.33 7.32 9.66 8 10 C8.33 9.01 8.66 8.02 9 7 C9.99 7 10.98 7 12 7 C12.125 14.75 12.125 14.75 11 17 C12.98 17 14.96 17 17 17 C18.1875 19.1875 18.1875 19.1875 19 22 C17.83421647 24.78492733 16.79045428 26.44375439 14.3125 28.1875 C10.9257748 29.37743048 7.49602355 30.18426117 4 31 C4.99 31.33 5.98 31.66 7 32 C6 35 6 35 3.625 36.1875 C1 37 1 37 -2 37 C-3.23060421 34.53879159 -3.2057723 32.74223134 -3.31640625 29.9921875 C-3.35830078 29.00605469 -3.40019531 28.01992187 -3.44335938 27.00390625 C-3.48267578 25.97136719 -3.52199219 24.93882813 -3.5625 23.875 C-3.60568359 22.83472656 -3.64886719 21.79445313 -3.69335938 20.72265625 C-3.7996288 18.14857472 -3.90166583 15.57439492 -4 13 C-3.34 13 -2.68 13 -2 13 C-2.04125 11.783125 -2.0825 10.56625 -2.125 9.3125 C-2.13754508 5.78105873 -1.59998217 3.19996434 0 0 Z " fill="#1D69A1" transform="translate(114,85)"/>
<path d="M0 0 C3 1 3 1 4.64453125 2.9296875 C7.82423728 10.13213401 7.99826459 21.61795534 5.25 29.02001953 C2.71940484 33.70030255 -0.61534496 37.07689664 -5 40 C-5.16777183 38.20843648 -5.33418294 36.4167455 -5.5 34.625 C-5.5928125 33.62726563 -5.685625 32.62953125 -5.78125 31.6015625 C-6 29 -6 29 -6 27 C-5.34 27 -4.68 27 -4 27 C-4.66 26.443125 -5.32 25.88625 -6 25.3125 C-8 23 -8 23 -8.3125 20.3125 C-8 18 -8 18 -7 17 C-6.70564343 15.39998262 -6.43929695 13.79476466 -6.1875 12.1875 C-5.37913984 7.88849368 -4.4811313 5.80736395 -1 3 C-0.67 2.01 -0.34 1.02 0 0 Z " fill="#1F6AA1" transform="translate(198,102)"/>
<path d="M0 0 C7.43335872 -0.36557502 7.43335872 -0.36557502 9.9375 1.25 C11 3 11 3 11.4375 5 C12.20391605 7.72503485 13.67901268 8.50258883 16 10 C15.45939743 13.89233849 14.37781856 15.92865102 12 19 C10.60448691 22.76258593 11.08147109 26.36572615 11.375 30.3125 C11.46523437 31.58738281 11.55546875 32.86226562 11.6484375 34.17578125 C11.98312192 37.81640404 12.44856976 41.38766461 13 45 C9.75954619 41.75954619 9.83660595 37.0773521 9.14453125 32.67773438 C8.82292965 30.77406041 8.41749013 28.88496794 8 27 C7.34 26.67 6.68 26.34 6 26 C6.06058594 26.62865967 6.12117187 27.25731934 6.18359375 27.9050293 C8.38016122 50.99644479 8.38016122 50.99644479 8 62 C7.67 62 7.34 62 7 62 C4.91813202 44.28553402 4.7736441 26.80550312 5 9 C3.35 9 1.7 9 0 9 C0 9.66 0 10.32 0 11 C-0.66 10.67 -1.32 10.34 -2 10 C-1.34 6.7 -0.68 3.4 0 0 Z " fill="#93C4B0" transform="translate(127,53)"/>
<path d="M0 0 C0 2 0 2 -1.25 3.375 C-2.11625 4.179375 -2.11625 4.179375 -3 5 C-3.66 5.70125 -4.32 6.4025 -5 7.125 C-7 9 -7 9 -10 10 C-9.67 10.99 -9.34 11.98 -9 13 C-12.69948187 16.61139896 -12.69948187 16.61139896 -15 18 C-18.375 17.8125 -18.375 17.8125 -21 17 C-21 17.99 -21 18.98 -21 20 C-21.66 20 -22.32 20 -23 20 C-23 18.68 -23 17.36 -23 16 C-25.64 16 -28.28 16 -31 16 C-30.890625 12.703125 -30.890625 12.703125 -30 9 C-27.296875 7.109375 -27.296875 7.109375 -23.75 5.75 C-23.12826904 5.50749512 -22.50653809 5.26499023 -21.8659668 5.01513672 C-14.94334681 2.41401583 -7.43491684 0 0 0 Z " fill="#8BC69D" transform="translate(100,11)"/>
<path d="M0 0 C4.29 0 8.58 0 13 0 C12.85929562 3.10447753 12.71265848 6.20847775 12.5625 9.3125 C12.52318359 10.19357422 12.48386719 11.07464844 12.44335938 11.98242188 C12.40146484 12.82998047 12.35957031 13.67753906 12.31640625 14.55078125 C12.26141968 15.72120972 12.26141968 15.72120972 12.20532227 16.9152832 C12 19 12 19 11 22 C6.71 22 2.42 22 -2 22 C-2.33 20.68 -2.66 19.36 -3 18 C-2.01 17.67 -1.02 17.34 0 17 C0.5745952 13.26513121 1 9.78706732 1 6 C0.67 5.67 0.34 5.34 0 5 C0 3.35 0 1.7 0 0 Z " fill="#206BA0" transform="translate(180,48)"/>
<path d="M0 0 C0.5775 0.61875 1.155 1.2375 1.75 1.875 C3.80249821 3.81347053 5.43366582 4.90014249 8 6 C7.01 6.495 7.01 6.495 6 7 C6.33 7.66 6.66 8.32 7 9 C7.99 9 8.98 9 10 9 C10.33 9.66 10.66 10.32 11 11 C10.360625 11.103125 9.72125 11.20625 9.0625 11.3125 C8.381875 11.539375 7.70125 11.76625 7 12 C6.67 12.99 6.34 13.98 6 15 C6.66 15.66 7.32 16.32 8 17 C8 17.99 8 18.98 8 20 C0.65742741 19.42411195 -9.18864731 18.29843774 -14.88671875 13.3671875 C-15.25410156 12.91601562 -15.62148437 12.46484375 -16 12 C-13.69 12.66 -11.38 13.32 -9 14 C-8.30840599 12.15274948 -8.30840599 12.15274948 -8 10 C-8.66 9.01 -9.32 8.02 -10 7 C-9.625 4.3125 -9.625 4.3125 -9 2 C-6.03 2.33 -3.06 2.66 0 3 C0 2.01 0 1.02 0 0 Z " fill="#E1ECEC" transform="translate(179,72)"/>
<path d="M0 0 C2.70343211 2.70343211 3.15970399 5.71161401 4.0625 9.3125 C4.23587891 9.97701172 4.40925781 10.64152344 4.58789062 11.32617188 C6.04041517 16.95261752 7.13263028 21.99168717 7.0625 27.8125 C7.05347656 28.78832031 7.04445312 29.76414062 7.03515625 30.76953125 C7.02355469 31.50558594 7.01195312 32.24164063 7 33 C6.67 33 6.34 33 6 33 C5.67 30.36 5.34 27.72 5 25 C4.67 25.99 4.34 26.98 4 28 C2.68 27.67 1.36 27.34 0 27 C0 27.99 0 28.98 0 30 C-2.76276177 29.47731534 -5.3260876 28.89130413 -8 28 C-8 27.01 -8 26.02 -8 25 C-6.35 25 -4.7 25 -3 25 C-3.66 22.03 -4.32 19.06 -5 16 C-3.35 15.34 -1.7 14.68 0 14 C0 12.68 0 11.36 0 10 C-2.31 10.66 -4.62 11.32 -7 12 C-7 14.24374952 -6.75477881 16.39568543 -6.5 18.625 C-6.36078125 19.85089844 -6.36078125 19.85089844 -6.21875 21.1015625 C-6.1465625 21.72804688 -6.074375 22.35453125 -6 23 C-7.32 23.33 -8.64 23.66 -10 24 C-10 20.25838897 -9.48661829 16.71046443 -9 13 C-10.32 12.67 -11.64 12.34 -13 12 C-12.67 11.34 -12.34 10.68 -12 10 C-9.85546875 9.3671875 -9.85546875 9.3671875 -7.1875 8.875 C-6.31480469 8.70742187 -5.44210938 8.53984375 -4.54296875 8.3671875 C-2 8 -2 8 2 8 C1.67 7.236875 1.34 6.47375 1 5.6875 C0 3 0 3 0 0 Z M-2 23 C-1 25 -1 25 -1 25 Z " fill="#99CCA8" transform="translate(209,77)"/>
<path d="M0 0 C-0.66 1.32 -1.32 2.64 -2 4 C-1.34 3.67 -0.68 3.34 0 3 C1.99960012 2.960008 4.00047242 2.95653201 6 3 C6 3.99 6 4.98 6 6 C6.66 6.33 7.32 6.66 8 7 C7.34 7 6.68 7 6 7 C6 7.66 6 8.32 6 9 C7.32 8.67 8.64 8.34 10 8 C10 8.99 10 9.98 10 11 C7.0936485 13.80255323 6.21174952 14 2 14 C2 13.34 2 12.68 2 12 C1.01 11.67 0.02 11.34 -1 11 C-1 10.34 -1 9.68 -1 9 C-1.99 8.67 -2.98 8.34 -4 8 C-5.51472274 5.72791589 -6.78009593 3.43980815 -8 1 C-4.93251126 -0.86240388 -3.40254489 -1.2151946 0 0 Z " fill="#1F69A3" transform="translate(166,53)"/>
<path d="M0 0 C0.94101563 0.00322266 1.88203125 0.00644531 2.8515625 0.00976562 C3.83640625 0.01814453 4.82125 0.02652344 5.8359375 0.03515625 C6.82851562 0.03966797 7.82109375 0.04417969 8.84375 0.04882812 C11.2995391 0.0606348 13.75520854 0.07710225 16.2109375 0.09765625 C15.62907815 3.17959259 15.44761988 3.90575162 12.8984375 5.97265625 C11.568125 6.52953125 11.568125 6.52953125 10.2109375 7.09765625 C8.86007943 6.46725582 7.52841074 5.79514208 6.2109375 5.09765625 C2.83807412 5.40428019 -0.35775146 6.00389298 -3.6640625 6.72265625 C-4.3653125 6.84640625 -5.0665625 6.97015625 -5.7890625 7.09765625 C-6.7890625 6.09765625 -6.7890625 6.09765625 -6.8515625 3.53515625 C-6.8309375 2.73078125 -6.8103125 1.92640625 -6.7890625 1.09765625 C-4.33631109 -0.12871945 -2.7384844 -0.01649689 0 0 Z " fill="#B1D8BC" transform="translate(108.7890625,9.90234375)"/>
<path d="M0 0 C6.20988129 0.44356295 10.60540561 1.91532502 16 5 C15.45276317 8.37462715 14.9451 10.08235 13 13 C13.804375 13.2475 14.60875 13.495 15.4375 13.75 C18 15 18 15 18.8125 17.125 C18.874375 17.74375 18.93625 18.3625 19 19 C17.35 19.33 15.7 19.66 14 20 C13.731875 19.360625 13.46375 18.72125 13.1875 18.0625 C12.11332248 15.66868314 12.11332248 15.66868314 9 15 C9.33 12.36 9.66 9.72 10 7 C9.278125 6.731875 8.55625 6.46375 7.8125 6.1875 C5.00233617 5.00098638 2.51583443 3.72514361 0 2 C0 1.34 0 0.68 0 0 Z " fill="#1F69A4" transform="translate(63,157)"/>
<path d="M0 0 C0.33 0 0.66 0 1 0 C3.19609665 7.75092937 3.19609665 7.75092937 2 12 C2 13.32 2 14.64 2 16 C1.34 16 0.68 16 0 16 C0 17.32 0 18.64 0 20 C-2 20 -2 20 -3.625 18.4375 C-5.53353504 15.05418789 -5.39117777 12.84658143 -5 9 C-3.90130365 5.50670903 -2.62515935 2.62515935 0 0 Z " fill="#1F6AA2" transform="translate(142,67)"/>
<path d="M0 0 C-0.33 1.32 -0.66 2.64 -1 4 C-1.598125 4.103125 -2.19625 4.20625 -2.8125 4.3125 C-5.0389487 4.82693928 -5.0389487 4.82693928 -6.375 6.375 C-8.6455472 8.6455472 -11.06359305 9.74153988 -14 11 C-15.32 11 -16.64 11 -18 11 C-18 10.01 -18 9.02 -18 8 C-19.32 8.33 -20.64 8.66 -22 9 C-19.37198723 5.79007012 -16.33527695 4.78299582 -12.5 3.375 C-11.3553125 2.94960937 -10.210625 2.52421875 -9.03125 2.0859375 C-3.20863309 0 -3.20863309 0 0 0 Z " fill="#6A97DE" transform="translate(72,77)"/>
<path d="M0 0 C0.66 0 1.32 0 2 0 C5 5.625 5 5.625 5 9 C4.01 9.495 4.01 9.495 3 10 C3.04125 10.78375 3.0825 11.5675 3.125 12.375 C3 15 3 15 1 17 C0.53513282 20.12196336 0.53513282 20.12196336 0.375 23.625 C0.30023438 24.81351563 0.22546875 26.00203125 0.1484375 27.2265625 C0.09945313 28.14179687 0.05046875 29.05703125 0 30 C-0.66 30 -1.32 30 -2 30 C-2.2615556 19.75573889 -1.60781635 10.12062972 0 0 Z " fill="#A7D3B4" transform="translate(14,87)"/>
<path d="M0 0 C1.6260287 0.06000106 3.25101549 0.1487885 4.875 0.25 C6.23238281 0.31960937 6.23238281 0.31960937 7.6171875 0.390625 C10 1 10 1 11.3125 2.875 C12.11268687 5.34830486 12.14354627 7.41616706 12 10 C11.01 10 10.02 10 9 10 C9 8.68 9 7.36 9 6 C7.68 6.33 6.36 6.66 5 7 C5 7.66 5 8.32 5 9 C5.66 9 6.32 9 7 9 C7 9.99 7 10.98 7 12 C4.03 11.505 4.03 11.505 1 11 C1.61277612 8.03824877 2.25372522 6.61941217 4 4 C2.68 4 1.36 4 0 4 C0 2.68 0 1.36 0 0 Z " fill="#84C296" transform="translate(171,76)"/>
<path d="M0 0 C0.33 1.98 0.66 3.96 1 6 C2.32 6.33 3.64 6.66 5 7 C4.47557578 10.7758544 3.67345333 13.22372155 1 16 C0.01 16 -0.98 16 -2 16 C-2.1953125 14.01432292 -2.390625 12.02864583 -2.5859375 10.04296875 C-2.92665391 7.70011858 -2.92665391 7.70011858 -5 5 C-4.75 2.875 -4.75 2.875 -4 1 C-2 0 -2 0 0 0 Z " fill="#1E69A4" transform="translate(122,72)"/>
<path d="M0 0 C0.66 0 1.32 0 2 0 C2.33 9.9 2.66 19.8 3 30 C2.34 30 1.68 30 1 30 C0.87625 29.0925 0.7525 28.185 0.625 27.25 C0.19650692 24.13421703 0.19650692 24.13421703 -1.0234375 22.12109375 C-4.08748531 15.46598191 -1.77296272 6.75942035 0 0 Z M0 4 C1 8 1 8 1 8 Z M-1 11 C-1 13.31 -1 15.62 -1 18 C-0.67 18 -0.34 18 0 18 C0 15.69 0 13.38 0 11 C-0.33 11 -0.66 11 -1 11 Z " fill="#E0EBEF" transform="translate(50,116)"/>
<path d="M0 0 C3.51175807 0.65032557 6.20618254 1.74942483 9 4 C9.3125 7.1875 9.3125 7.1875 9 10 C5.98968256 10.93423645 5.13349732 11.04449911 2 10 C1.67 8.35 1.34 6.7 1 5 C0.01 5 -0.98 5 -2 5 C-1.34 3.35 -0.68 1.7 0 0 Z " fill="#206BA2" transform="translate(187,93)"/>
<path d="M0 0 C3.45854519 3.45854519 4 7.21904213 4 12 C3.34 12 2.68 12 2 12 C2 12.66 2 13.32 2 14 C1.34 14 0.68 14 0 14 C0 12.68 0 11.36 0 10 C-2.31 10.66 -4.62 11.32 -7 12 C-7 14.24374952 -6.75477881 16.39568543 -6.5 18.625 C-6.36078125 19.85089844 -6.36078125 19.85089844 -6.21875 21.1015625 C-6.1465625 21.72804688 -6.074375 22.35453125 -6 23 C-7.32 23.33 -8.64 23.66 -10 24 C-10 20.25838897 -9.48661829 16.71046443 -9 13 C-10.32 12.67 -11.64 12.34 -13 12 C-12.67 11.34 -12.34 10.68 -12 10 C-9.85546875 9.3671875 -9.85546875 9.3671875 -7.1875 8.875 C-6.31480469 8.70742187 -5.44210938 8.53984375 -4.54296875 8.3671875 C-2 8 -2 8 2 8 C1.67 7.236875 1.34 6.47375 1 5.6875 C0 3 0 3 0 0 Z " fill="#DCECE0" transform="translate(209,77)"/>
<path d="M0 0 C0.66 0.33 1.32 0.66 2 1 C1.01 1.33 0.02 1.66 -1 2 C-0.505 2.5775 -0.01 3.155 0.5 3.75 C2 6 2 6 2 10 C2.99 10 3.98 10 5 10 C5.33 11.32 5.66 12.64 6 14 C4.68 13.67 3.36 13.34 2 13 C2 13.99 2 14.98 2 16 C-0.76276177 15.47731534 -3.3260876 14.89130413 -6 14 C-6 13.01 -6 12.02 -6 11 C-4.35 11 -2.7 11 -1 11 C-1.66 8.03 -2.32 5.06 -3 2 C-2.01 1.34 -1.02 0.68 0 0 Z M0 9 C1 11 1 11 1 11 Z " fill="#DFEDE4" transform="translate(207,91)"/>
<path d="M0 0 C7.26153846 -0.61538462 7.26153846 -0.61538462 11 2.5 C11.66 3.325 12.32 4.15 13 5 C9.04 5.99 5.08 6.98 1 8 C0.67 5.36 0.34 2.72 0 0 Z " fill="#437DD6" transform="translate(70,131)"/>
<path d="M0 0 C0.99 0.33 1.98 0.66 3 1 C2.67 4.3 2.34 7.6 2 11 C1.01 11.33 0.02 11.66 -1 12 C-1.66 11.67 -2.32 11.34 -3 11 C-3 10.01 -3 9.02 -3 8 C-3.66 8 -4.32 8 -5 8 C-5.33 6.68 -5.66 5.36 -6 4 C-5.34 3.67 -4.68 3.34 -4 3 C-3.01 3.33 -2.02 3.66 -1 4 C-0.67 2.68 -0.34 1.36 0 0 Z " fill="#1F69A5" transform="translate(152,66)"/>
<path d="M0 0 C6.6 0 13.2 0 20 0 C18 4 18 4 16.3125 5.4375 C12.66480913 6.32477616 10.24682845 4.62341422 7 3 C7 2.34 7 1.68 7 1 C4.69 1 2.38 1 0 1 C0 0.67 0 0.34 0 0 Z " fill="#8AC59C" transform="translate(105,11)"/>
<path d="M0 0 C4.95 0.99 4.95 0.99 10 2 C10 2.99 10 3.98 10 5 C9.01 5 8.02 5 7 5 C6.896875 5.763125 6.79375 6.52625 6.6875 7.3125 C5.95635961 10.17059424 5.23048087 11.15742885 3 13 C3 12.34 3 11.68 3 11 C2.01 10.67 1.02 10.34 0 10 C0.7115625 9.38125 0.7115625 9.38125 1.4375 8.75 C3.16266518 6.817815 3.56584875 5.51807725 4 3 C2.68 3 1.36 3 0 3 C0 2.01 0 1.02 0 0 Z " fill="#80C193" transform="translate(129,12)"/>
<path d="M0 0 C1.65 0 3.3 0 5 0 C5 5.28 5 10.56 5 16 C4.34 16 3.68 16 3 16 C3.0825 15.0925 3.165 14.185 3.25 13.25 C3.35328715 9.90077649 3.35328715 9.90077649 0.9375 8 C0.298125 7.34 -0.34125 6.68 -1 6 C-0.75 2.75 -0.75 2.75 0 0 Z " fill="#2871A0" transform="translate(127,62)"/>
<path d="M0 0 C6.55361587 0.52851741 12.88352268 1.46360365 19 4 C19.33 4.66 19.66 5.32 20 6 C17.69 5.67 15.38 5.34 13 5 C13 5.99 13 6.98 13 8 C12.01 8 11.02 8 10 8 C10 8.66 10 9.32 10 10 C9.34 10 8.68 10 8 10 C8 8.68 8 7.36 8 6 C8.99 6 9.98 6 11 6 C11 5.01 11 4.02 11 3 C7.7 2.34 4.4 1.68 1 1 C0.67 1.99 0.34 2.98 0 4 C0 2.68 0 1.36 0 0 Z " fill="#CDE5D4" transform="translate(128,11)"/>
<path d="M0 0 C0.33 0 0.66 0 1 0 C1 2.97 1 5.94 1 9 C1.66 9.33 2.32 9.66 3 10 C2.67 10.33 2.34 10.66 2 11 C1.76518307 13.18292774 1.58636677 15.37203174 1.4375 17.5625 C1.35371094 18.76003906 1.26992187 19.95757812 1.18359375 21.19140625 C1.12300781 22.11824219 1.06242188 23.04507813 1 24 C0.34 24 -0.32 24 -1 24 C-1.09579384 15.92138585 -1.12513633 8.01659634 0 0 Z " fill="#C7E2CF" transform="translate(13,93)"/>
<path d="M0 0 C0.99 0.33 1.98 0.66 3 1 C3 2.98 3 4.96 3 7 C3.99 7.33 4.98 7.66 6 8 C6 8.99 6 9.98 6 11 C4.02 11 2.04 11 0 11 C-0.33 11.66 -0.66 12.32 -1 13 C-1 12.01 -1 11.02 -1 10 C0.65 9.67 2.3 9.34 4 9 C3.505 8.566875 3.01 8.13375 2.5 7.6875 C1 6 1 6 1 3 C-1.31 2.67 -3.62 2.34 -6 2 C-6 2.66 -6 3.32 -6 4 C-6.99 3.67 -7.98 3.34 -9 3 C-8.34 3 -7.68 3 -7 3 C-7 2.34 -7 1.68 -7 1 C-4.69 1.33 -2.38 1.66 0 2 C0 1.34 0 0.68 0 0 Z " fill="#D9EBDD" transform="translate(103,47)"/>
<path d="M0 0 C0.33 0.66 0.66 1.32 1 2 C5.62 2 10.24 2 15 2 C15.33 2.99 15.66 3.98 16 5 C13.03 4.505 13.03 4.505 10 4 C10 4.99 10 5.98 10 7 C9.34 7 8.68 7 8 7 C8 5.68 8 4.36 8 3 C5.36 3 2.72 3 0 3 C0 2.01 0 1.02 0 0 Z " fill="#C4E1CD" transform="translate(69,24)"/>
<path d="M0 0 C0 0.66 0 1.32 0 2 C-2.58026388 2.86008796 -4.57809297 3.2384147 -7.25 3.5 C-11.1853274 3.90577026 -15.08718218 4.4172399 -19 5 C-15.73809743 2.82539828 -13.30548772 2.22352091 -9.5 1.375 C-8.3553125 1.11460938 -7.210625 0.85421875 -6.03125 0.5859375 C-3 0 -3 0 0 0 Z " fill="#D6E9DB" transform="translate(100,11)"/>
<path d="M0 0 C0.33 1.32 0.66 2.64 1 4 C1.66 4 2.32 4 3 4 C3 4.99 3 5.98 3 7 C0.03 6.505 0.03 6.505 -3 6 C-2.42655063 3.13275314 -2.1385485 2.1385485 0 0 Z " fill="#91C8A2" transform="translate(175,81)"/>
<path d="M0 0 C0.99 0 1.98 0 3 0 C3 0.99 3 1.98 3 3 C2.34 3 1.68 3 1 3 C1 4.98 1 6.96 1 9 C0.01 8.67 -0.98 8.34 -2 8 C-1.125 2.25 -1.125 2.25 0 0 Z " fill="#C4E1CD" transform="translate(20,77)"/>
<path d="M0 0 C3.45854519 3.45854519 4 7.21904213 4 12 C3.34 12 2.68 12 2 12 C2 12.66 2 13.32 2 14 C1.34 14 0.68 14 0 14 C0.185625 12.80375 0.37125 11.6075 0.5625 10.375 C1.0311197 6.71716293 0.81481013 3.62137834 0 0 Z " fill="#CAE3D1" transform="translate(209,77)"/>
<path d="M0 0 C1.485 0.99 1.485 0.99 3 2 C2.67 4.64 2.34 7.28 2 10 C1.34 10 0.68 10 0 10 C0 6.7 0 3.4 0 0 Z " fill="#2A73A0" transform="translate(108,72)"/>
<path d="M0 0 C0.99 0.33 1.98 0.66 3 1 C3 1.66 3 2.32 3 3 C-3.75 3.125 -3.75 3.125 -6 2 C-6 2.66 -6 3.32 -6 4 C-6.99 3.67 -7.98 3.34 -9 3 C-8.34 3 -7.68 3 -7 3 C-7 2.34 -7 1.68 -7 1 C-4.69 1.33 -2.38 1.66 0 2 C0 1.34 0 0.68 0 0 Z " fill="#D1E7D7" transform="translate(103,47)"/>
<path d="M0 0 C0.66 0 1.32 0 2 0 C2.33 1.65 2.66 3.3 3 5 C1.68 5.33 0.36 5.66 -1 6 C-1 3 -1 3 0 0 Z " fill="#EFF4F3" transform="translate(200,95)"/>
<path d="M0 0 C0.33 0 0.66 0 1 0 C1 1.65 1 3.3 1 5 C0.01 5.33 -0.98 5.66 -2 6 C-2.66 6.99 -3.32 7.98 -4 9 C-3.47181039 5.19703482 -2.56226812 2.88255163 0 0 Z " fill="#3178A5" transform="translate(142,67)"/>
<path d="M0 0 C1.65 0 3.3 0 5 0 C5 1.32 5 2.64 5 4 C3.35 3.67 1.7 3.34 0 3 C0 2.01 0 1.02 0 0 Z " fill="#3175B0" transform="translate(171,49)"/>
<path d="" fill="#FBFBFB" transform="translate(0,0)"/>
<path d="" fill="#FCFCFB" transform="translate(0,0)"/>
</svg>
